#!OML:ASF H:\Male1\Project 1\Capture day 1\Session 1\Male1.ASF
:FULLY-SPECIFIED
:DEGREES
340
root -22.8208 14.8203 -0.174059 713.562 -264.31 -726.299
lowerback 3.84228 1.94468 -4.22865
upperback 3.83846 2.6426 -2.13818
thorax 1.71513 1.30664 0.107404
lowerneck -5.40342 3.23389 8.80362
upperneck 15.2354 4.04049 -2.38811
head 5.7272 2.39403 -1.91795
rclavicle 2.93207e-014 -2.46493e-014
rhumerus -31.017 -3.42713 -90.9548
rradius 29.26
rwrist -14.4119
rhand -15.6488 1.53586
rfingers 7.12502
rthumb 10.539 -28.1799
lclavicle 2.93207e-014 -2.46493e-014
lhumerus -24.9211 -4.28021 87.5078
lradius 24.103
lwrist -5.68257
lhand -19.7711 13.8225
lfingers 7.12502
lthumb 6.56077 43.7009
rfemur -11.8381 17.2671 22.5432
rtibia 38.5383
rfoot -27.5546 -13.6585
rtoes -34.6035
lfemur -9.54881 -15.275 -26.8542
ltibia 34.6742
lfoot -27.5739 19.245
ltoes 0.248794
341
root -22.8027 14.8173 -0.195217 715.458 -264.444 -724.473
lowerback 3.83579 1.96051 -3.99439
upperback 3.82518 2.66485 -2.07489
thorax 1.71035 1.32105 0.0416105
lowerneck -5.41394 3.27569 8.84766
upperneck 15.2023 4.09412 -2.4192
head 5.72342 2.4189 -1.931
rclavicle -4.77083e-015 2.3059e-014
rhumerus -30.957 -3.43266 -90.9135
rradius 29.2752
rwrist -14.389
rhand -15.6507 1.47977
rfingers 7.12502
rthumb 10.5371 -28.2361
lclavicle -4.77083e-015 2.3059e-014
lhumerus -24.6839 -6.08301 88.4667
lradius 25.2428
lwrist -4.61403
lhand -19.7397 13.6179
lfingers 7.12502
lthumb 6.59107 43.4953
rfemur -11.6097 17.4794 22.7022
rtibia 38.1619
rfoot -27.6159 -13.8159
rtoes -34.5515
lfemur -9.60096 -15.4171 -26.7729
ltibia 34.8384
lfoot -27.8411 19.4409
ltoes 0.407423
342
root -22.7857 14.8133 -0.215233 717.543 -264.6 -722.427
lowerback 3.85598 1.98901 -3.75009
upperback 3.81804 2.70355 -2.01403
thorax 1.69738 1.34423 -0.0336518
lowerneck -5.40195 3.2865 8.8963
upperneck 15.1402 4.10675 -2.45219
head 5.70443 2.42344 -1.94882
rclavicle 3.97569e-014 3.18055e-015
rhumerus -30.8646 -3.4654 -90.8717
rradius 29.2666
rwrist -14.35
rhand -15.6621 1.46691
rfingers 7.12502
rthumb 10.5261 -28.2495
lclavicle 3.97569e-014 3.18055e-015
lhumerus -24.4156 -7.62536 89.2972
lradius 26.3359
lwrist -3.82915
lhand -19.6484 13.4247
lfingers 7.12502
lthumb 6.67929 43.2994
rfemur -11.3557 17.7085 22.8774
rtibia 37.7887
rfoot -27.6224 -14.011
rtoes -34.7238
lfemur -9.62225 -15.5817 -26.69
ltibia 35.01
lfoot -28.1163 19.7027
ltoes 0.432077
343
root -22.7693 14.8093 -0.234216 719.792 -264.786 -720.207
lowerback 3.876 2.02688 -3.51311
upperback 3.81197 2.75492 -1.95348
thorax 1.68537 1.37359 -0.105546
lowerneck -5.35732 3.27086 8.94918
upperneck 15.0446 4.08758 -2.50081
head 5.66778 2.41114 -1.97521
rclavicle 7.15625e-015 -1.74931e-014
rhumerus -30.7473 -3.48793 -90.8359
rradius 29.2473
rwrist -14.3135
rhand -15.6895 1.4946
rfingers 7.12502
rthumb 10.4997 -28.2232
lclavicle 7.15625e-015 -1.74931e-014
lhumerus -24.1012 -8.92948 90.0192
lradius 27.3274
lwrist -3.25022
lhand -19.4669 13.3045
lfingers 7.12502
lthumb 6.8545 43.1735
rfemur -11.1201 17.9265 23.0535
rtibia 37.4505
rfoot -27.599 -14.2353
rtoes -35.1538
lfemur -9.61778 -15.7637 -26.6084
ltibia 35.1607
lfoot -28.3959 20.0153
ltoes 0.403858
344
root -22.7529 14.8063 -0.252238 721.983 -264.991 -718.06
lowerback 3.8692 2.06161 -3.3233
upperback 3.80141 2.80218 -1.89223
thorax 1.6821 1.39964 -0.149469
lowerneck -5.29463 3.24458 9.00038
upperneck 14.9424 4.05932 -2.57355
head 5.62573 2.39271 -2.00989
rclavicle -1.64991e-014 1.59028e-015
rhumerus -30.6192 -3.45436 -90.81
rradius 29.2389
rwrist -14.2933
rhand -15.7357 1.53127
rfingers 7.12502
rthumb 10.4551 -28.1888
lclavicle -1.64991e-014 1.59028e-015
lhumerus -23.761 -10.0262 90.6571
lradius 28.2144
lwrist -2.76991
lhand -19.1999 13.3224
lfingers 7.12502
lthumb 7.1122 43.1829
rfemur -10.9481 18.0981 23.1933
rtibia 37.1799
rfoot -27.5738 -14.4384
rtoes -35.7638
lfemur -9.5966 -15.9619 -26.548
ltibia 35.2638
lfoot -28.6704 20.3602
ltoes 0.368939
345
root -22.7358 14.8045 -0.269717 723.85 -265.196 -716.261
lowerback 3.83117 2.08191 -3.20195
upperback 3.7827 2.82975 -1.83616
thorax 1.68574 1.41426 -0.159053
lowerneck -5.25077 3.22266 9.04242
upperneck 14.8831 4.0377 -2.64806
head 5.60052 2.37796 -2.0427
rclavicle 2.98177e-014 -4.05521e-014
rhumerus -30.4953 -3.35999 -90.7945
rradius 29.2581
rwrist -14.2864
rhand -15.7852 1.5615
rfingers 7.12502
rthumb 10.4073 -28.1609
lclavicle 2.98177e-014 -4.05521e-014
lhumerus -23.4316 -10.9632 91.2293
lradius 29.0272
lwrist -2.2933
lhand -18.8982 13.4874
lfingers 7.12502
lthumb 7.40337 43.3378
rfemur -10.8645 18.1832 23.2651
rtibia 37.0078
rfoot -27.5824 -14.5505
rtoes -36.4196
lfemur -9.55655 -16.1758 -26.5287
ltibia 35.2994
lfoot -28.9325 20.7006
ltoes 0.391129
346
root -22.7178 14.8037 -0.286879 725.174 -265.388 -715.025
lowerback 3.77161 2.08198 -3.15638
upperback 3.75523 2.82946 -1.79115
thorax 1.6902 1.41344 -0.136453
lowerneck -5.2488 3.21897 9.07301
upperneck 14.8949 4.03665 -2.69854
head 5.60532 2.37585 -2.06371
rclavicle 4.54223e-014 -5.24792e-014
rhumerus -30.3819 -3.23017 -90.7845
rradius 29.3102
rwrist -14.2973
rhand -15.8185 1.57665
rfingers 7.12502
rthumb 10.3753 -28.1474
lclavicle 4.54223e-014 -5.24792e-014
lhumerus -23.1445 -11.7858 91.7464
lradius 29.7936
lwrist -1.75343
lhand -18.635 13.7766
lfingers 7.12502
lthumb 7.65744 43.618
rfemur -10.8797 18.1594 23.2554
rtibia 36.9619
rfoot -27.636 -14.5313
rtoes -37.0404
lfemur -9.49095 -16.3856 -26.5584
ltibia 35.2576
lfoot -29.1749 20.9905
ltoes 0.522926
347
root -22.6989 14.8034 -0.303831 725.857 -265.559 -714.427
lowerback 3.71516 2.06112 -3.17708
upperback 3.72825 2.80036 -1.75988
thorax 1.69185 1.39719 -0.0905004
lowerneck -5.29168 3.24074 9.10024
upperneck 14.9711 4.06406 -2.72118
head 5.63925 2.39061 -2.07246
rclavicle -5.06901e-015 -1.74931e-014
rhumerus -30.2763 -3.10012 -90.7744
rradius 29.3983
rwrist -14.3417
rhand -15.8203 1.57365
rfingers 7.12502
rthumb 10.3735 -28.1505
lclavicle -5.06901e-015 -1.74931e-014
lhumerus -22.9031 -12.5081 92.2068
lradius 30.5125
lwrist -1.13374
lhand -18.4516 14.0538
lfingers 7.12502
lthumb 7.83446 43.8886
rfemur -10.9802 18.0267 23.1758
rtibia 37.0646
rfoot -27.7156 -14.3915
rtoes -37.5917
lfemur -9.38138 -16.5666 -26.6366
ltibia 35.139
lfoot -29.3872 21.2036
ltoes 0.741843
348
root -22.6797 14.8033 -0.320375 725.877 -265.715 -714.473
lowerback 3.68132 2.02777 -3.25341
upperback 3.70938 2.75374 -1.74387
thorax 1.68811 1.37159 -0.0295809
lowerneck -5.36857 3.28721 9.13533
upperneck 15.0872 4.11859 -2.72071
head 5.69313 2.42128 -2.07251
rclavicle 4.57205e-015 -7.95139e-015
rhumerus -30.1707 -3.00003 -90.7606
rradius 29.515
rwrist -14.4219
rhand -15.801 1.55504
rfingers 7.12502
rthumb 10.3922 -28.1681
lclavicle 4.57205e-015 -7.95139e-015
lhumerus -22.6973 -13.1596 92.6187
lradius 31.1724
lwrist -0.506147
lhand -18.4636 14.2747
lfingers 7.12502
lthumb 7.8229 44.11
rfemur -11.1586 17.8025 23.0436
rtibia 37.3343
rfoot -27.7845 -14.1699
rtoes -38.0616
lfemur -9.22089 -16.6741 -26.7549
ltibia 34.9495
lfoot -29.5486 21.3282
ltoes 0.953974
349
root -22.6606 14.8027 -0.3363 725.157 -265.877 -715.232
lowerback 3.68197 1.99198 -3.38663
upperback 3.70417 2.70285 -1.74289
thorax 1.67792 1.34331 0.0466023
lowerneck -5.45002 3.35565 9.18888
upperneck 15.2019 4.20037 -2.72027
head 5.74965 2.46603 -2.07342
rclavicle -1.3418e-014 -3.18055e-015
rhumerus -30.0605 -2.92998 -90.7439
rradius 29.6541
rwrist -14.5404
rhand -15.7789 1.54581
rfingers 7.12502
rthumb 10.4135 -28.1763
lclavicle -1.3418e-014 -3.18055e-015
lhumerus -22.512 -13.7349 92.978
lradius 31.7492
lwrist 0.0638077
lhand -18.6324 14.3485
lfingers 7.12502
lthumb 7.66 44.1897
rfemur -11.4178 17.5067 22.8657
rtibia 37.7884
rfoot -27.7997 -13.9165
rtoes -38.5172
lfemur -9.00703 -16.6802 -26.9164
ltibia 34.6969
lfoot -29.6407 21.3845
ltoes 1.05723
350
root -22.6416 14.8021 -0.351604 723.64 -266.059 -716.755
lowerback 3.71412 1.95955 -3.57443
upperback 3.71821 2.65582 -1.75574
thorax 1.66869 1.31638 0.138069
lowerneck -5.50713 3.4423 9.2709
upperneck 15.2749 4.30928 -2.75039
head 5.79198 2.52237 -2.08703
rclavicle 2.22639e-014 6.36111e-015
rhumerus -29.9458 -2.87597 -90.7298
rradius 29.821
rwrist -14.6936
rhand -15.7472 1.57735
rfingers 7.12502
rthumb 10.444 -28.1432
lclavicle 2.22639e-014 6.36111e-015
lhumerus -22.3409 -14.2526 93.2885
lradius 32.2466
lwrist 0.552172
lhand -18.8396 14.3807
lfingers 7.12502
lthumb 7.46 44.2291
rfemur -11.769 17.1525 22.6498
rtibia 38.4443
rfoot -27.7456 -13.6715
rtoes -39.0313
lfemur -8.73956 -16.5883 -27.1243
ltibia 34.3873
lfoot -29.666 21.3941
ltoes 1.0786
351
root -22.6225 14.8014 -0.366405 721.261 -266.275 -719.109
lowerback 3.77567 1.93793 -3.80947
upperback 3.75423 2.62283 -1.78286
thorax 1.66456 1.29597 0.240191
lowerneck -5.5195 3.54498 9.40969
upperneck 15.2784 4.44647 -2.85144
head 5.8095 2.58901 -2.1311
rclavicle 1.60022e-014 -1.98785e-014
rhumerus -29.8264 -2.8357 -90.7235
rradius 30.0087
rwrist -14.8602
rhand -15.7142 1.64567
rfingers 7.12502
rthumb 10.4759 -28.0733
lclavicle 1.60022e-014 -1.98785e-014
lhumerus -22.18 -14.731 93.5518
lradius 32.6586
lwrist 0.954969
lhand -18.9995 14.4006
lfingers 7.12502
lthumb 7.30563 44.2545
rfemur -12.2204 16.7445 22.4055
rtibia 39.3158
rfoot -27.6121 -13.4567
rtoes -39.6377
lfemur -8.41014 -16.431 -27.3855
ltibia 34.0268
lfoot -29.6571 21.3818
ltoes 1.16426
352
root -22.603 14.8002 -0.380596 717.89 -266.536 -722.421
lowerback 3.8705 1.93486 -4.08731
upperback 3.80504 2.61333 -1.82309
thorax 1.65568 1.28692 0.351059
lowerneck -5.48776 3.67101 9.62732
upperneck 15.2266 4.62414 -3.05029
head 5.80907 2.67174 -2.21681
rclavicle -3.97569e-015 -9.54166e-015
rhumerus -29.7124 -2.81026 -90.7263
rradius 30.2076
rwrist -15.021
rhand -15.7093 1.72815
rfingers 7.12502
rthumb 10.4806 -27.9906
lclavicle -3.97569e-015 -9.54166e-015
lhumerus -22.0387 -15.1747 93.7718
lradius 32.9753
lwrist 1.26522
lhand -19.0788 14.404
lfingers 7.12502
lthumb 7.22906 44.2605
rfemur -12.7806 16.2837 22.1449
rtibia 40.4085
rfoot -27.3358 -13.2994
rtoes -40.3868
lfemur -8.01689 -16.2412 -27.7016
ltibia 33.6225
lfoot -29.6424 21.3844
ltoes 1.38027
